<svg xmlns="http://www.w3.org/2000/svg" xmlns:xlink="http://www.w3.org/1999/xlink" width="550" zoomAndPan="magnify" viewBox="0 0 412.5 187.499995" height="250" preserveAspectRatio="xMidYMid meet" version="1.0"><defs><g/></defs><g fill="#ffffff" fill-opacity="1"><g transform="translate(-4.112637, 124.090056)"><g><path d="M 145.769531 0 L 138.730469 -126.285156 L 103.371094 -126.285156 L 78.296875 -42.214844 L 51.234375 -126.285156 L 15.335938 -126.285156 L 9.382812 0 L 40.230469 0 L 42.9375 -69.996094 L 66.570312 0.722656 L 90.203125 0.722656 L 111.128906 -70.359375 L 115.640625 0 Z M 145.769531 0 "/></g></g></g><g fill="#ffffff" fill-opacity="1"><g transform="translate(151.022254, 124.090056)"><g><path d="M 73.964844 -49.070312 L 116 -126.285156 L 79.738281 -126.285156 L 58.269531 -81.902344 L 35.539062 -126.285156 L -1.082031 -126.285156 L 41.671875 -49.070312 L 41.671875 0 L 73.964844 0 Z M 73.964844 -49.070312 "/></g></g></g><g fill="#ffffff" fill-opacity="1"><g transform="translate(265.9303, 124.090056)"><g><path d="M 63.503906 -128.628906 C 54.484375 -128.628906 45.460938 -126.285156 36.082031 -121.953125 C 18.222656 -113.113281 6.675781 -90.5625 6.675781 -63.140625 C 6.675781 -45.101562 11.367188 -28.683594 20.925781 -16.777344 C 30.667969 -4.691406 44.742188 2.707031 63.503906 2.707031 C 82.445312 2.707031 96.699219 -4.691406 106.257812 -16.777344 C 115.820312 -28.683594 120.691406 -45.101562 120.691406 -63.140625 C 120.691406 -72.523438 119.066406 -82.085938 115.820312 -91.644531 C 112.933594 -102.109375 106.800781 -110.589844 97.597656 -117.625 C 88.21875 -125.019531 77.03125 -128.628906 63.503906 -128.628906 Z M 63.503906 -100.125 C 67.292969 -101.027344 73.425781 -98.683594 78.476562 -92.910156 C 83.527344 -86.957031 87.496094 -77.574219 87.316406 -63.140625 C 87.496094 -55.382812 86.054688 -45.824219 82.265625 -38.425781 C 78.476562 -30.847656 72.34375 -25.257812 63.503906 -25.976562 C 55.746094 -25.976562 49.792969 -29.949219 46.003906 -36.441406 C 42.035156 -43.117188 39.871094 -52.496094 39.871094 -63.140625 C 39.871094 -66.929688 40.050781 -71.800781 41.132812 -77.214844 C 42.394531 -82.445312 44.199219 -87.859375 47.988281 -93.089844 C 51.777344 -97.960938 56.828125 -100.304688 63.503906 -100.125 Z M 63.503906 -100.125 "/></g></g></g><g fill="#ffffff" fill-opacity="1"><g transform="translate(258.030924, 177.272438)"><g><path d="M 51.210938 -3.996094 C 50.039062 -5.652344 47.351562 -8.683594 43.699219 -11.785156 C 45.351562 -15.4375 46.109375 -19.507812 46.109375 -24.125 C 46.109375 -27.707031 45.492188 -31.359375 44.25 -35.015625 C 43.148438 -39.011719 40.804688 -42.25 37.289062 -44.9375 C 33.703125 -47.765625 29.429688 -49.144531 24.261719 -49.144531 C 20.816406 -49.144531 17.371094 -48.246094 13.785156 -46.59375 C 6.960938 -43.214844 2.550781 -34.601562 2.550781 -24.125 C 2.550781 -17.230469 4.34375 -10.960938 7.996094 -6.410156 C 11.71875 -1.792969 17.09375 1.035156 24.261719 1.035156 C 30.050781 1.035156 34.460938 -0.828125 37.910156 -3.722656 C 40.804688 -1.242188 43.5625 1.449219 44.527344 2.824219 Z M 21.367188 -14.40625 C 24.746094 -12.683594 27.085938 -11.511719 28.191406 -10.753906 C 27.226562 -10.199219 25.914062 -9.925781 24.261719 -9.925781 C 21.296875 -9.925781 19.023438 -11.441406 17.574219 -13.921875 C 16.058594 -16.472656 15.234375 -20.058594 15.234375 -24.125 C 15.234375 -25.570312 15.300781 -27.433594 15.714844 -29.5 C 16.199219 -31.5 16.886719 -33.566406 18.335938 -35.566406 C 19.78125 -37.425781 21.710938 -38.324219 24.261719 -38.253906 C 25.089844 -38.324219 25.984375 -38.183594 27.085938 -37.769531 C 29.292969 -36.804688 31.292969 -34.601562 32.671875 -30.949219 C 34.050781 -27.226562 33.703125 -22.402344 32.945312 -18.539062 C 31.015625 -19.917969 28.535156 -21.296875 25.570312 -22.675781 Z M 21.367188 -14.40625 "/></g></g></g><g fill="#ffffff" fill-opacity="1"><g transform="translate(307.790557, 177.272438)"><g><path d="M 37.359375 0 L 37.359375 -35.566406 L 25.226562 -35.566406 L 25.226562 -10.820312 C 24.054688 -9.925781 22.402344 -8.753906 19.988281 -8.753906 C 17.023438 -8.753906 15.851562 -10.820312 15.851562 -14.542969 L 15.851562 -35.566406 L 3.652344 -35.566406 L 3.652344 -13.027344 C 3.652344 -3.996094 8.476562 0.828125 16.335938 0.828125 C 20.402344 0.828125 23.847656 -0.6875 26.121094 -2.964844 L 26.8125 0 Z M 37.359375 0 "/></g></g></g><g fill="#ffffff" fill-opacity="1"><g transform="translate(348.935305, 177.272438)"><g><path d="M 10.132812 -49.695312 C 6.066406 -49.695312 3.859375 -47.144531 3.859375 -43.972656 C 3.859375 -40.597656 6.066406 -38.460938 10.132812 -38.460938 C 14.128906 -38.460938 16.402344 -40.597656 16.402344 -43.972656 C 16.402344 -47.144531 14.128906 -49.695312 10.132812 -49.695312 Z M 16.058594 0 L 16.058594 -35.566406 L 4.066406 -35.566406 L 4.066406 0 Z M 16.058594 0 "/></g></g></g><g fill="#ffffff" fill-opacity="1"><g transform="translate(369.059713, 177.272438)"><g><path d="M 33.980469 -27.363281 L 33.980469 -35.566406 L 3.101562 -35.566406 L 3.101562 -26.605469 L 19.230469 -26.605469 L 2.34375 -7.582031 L 2.34375 0 L 34.53125 0 L 34.53125 -8.890625 L 17.574219 -8.890625 Z M 33.980469 -27.363281 "/></g></g></g></svg>