<svg xmlns="http://www.w3.org/2000/svg" xmlns:xlink="http://www.w3.org/1999/xlink" width="550" zoomAndPan="magnify" viewBox="0 0 412.5 187.499995" height="250" preserveAspectRatio="xMidYMid meet" version="1.0"><defs><g/></defs><g fill="#ffffff" fill-opacity="1"><g transform="translate(3.396679, 113.308365)"><g><path d="M 4.5625 -46.25 L 4.5625 0 L 16.1875 0 L 16.1875 -15.1875 L 21.859375 -15.1875 C 25.4375 -15.1875 28.609375 -15.71875 31.375 -17.046875 C 36.59375 -19.421875 39.234375 -24.765625 39.234375 -30.921875 C 39.234375 -36.46875 37.1875 -40.890625 33.03125 -43.40625 C 29.921875 -45.25 26.03125 -46.25 21.40625 -46.25 Z M 16.1875 -36 L 21.203125 -36 C 22.796875 -36 24.109375 -35.734375 25.109375 -35.140625 C 26.75 -34.359375 27.484375 -32.640625 27.484375 -30.65625 C 27.484375 -28.9375 26.953125 -27.34375 25.375 -26.296875 C 24.3125 -25.625 22.859375 -25.296875 21.078125 -25.296875 L 16.1875 -25.296875 Z M 16.1875 -36 "/></g></g></g><g fill="#ffffff" fill-opacity="1"><g transform="translate(44.025506, 113.308365)"><g><path d="M 15.265625 -46.25 L 3.703125 -46.25 L 3.703125 0 L 15.265625 0 L 15.265625 -23.65625 C 16.390625 -24.703125 18.296875 -25.828125 20.28125 -25.828125 C 22.71875 -25.828125 24.3125 -24.109375 24.3125 -20.21875 L 24.3125 0 L 35.875 0 L 35.875 -21.609375 C 35.875 -30 31.84375 -34.8125 23.71875 -34.8125 C 19.890625 -34.8125 17.171875 -33.5625 15.265625 -32.171875 Z M 15.265625 -46.25 "/></g></g></g><g fill="#ffffff" fill-opacity="1"><g transform="translate(83.399128, 113.308365)"><g><path d="M 8.0625 -23.84375 C 10.5 -25.296875 13.21875 -26.234375 15.921875 -26.234375 C 18.765625 -26.234375 20.15625 -24.96875 20.15625 -22.46875 L 20.15625 -21.265625 C 16.515625 -21.078125 14.203125 -20.75 12.875 -20.546875 C 10.640625 -20.34375 7.796875 -19.546875 5.609375 -17.703125 C 3.296875 -15.921875 1.65625 -13.28125 1.71875 -9.71875 C 1.71875 -6.40625 2.84375 -4.03125 4.6875 -2.25 C 6.609375 -0.390625 9.109375 0.53125 12.09375 0.53125 C 16.046875 0.53125 19.03125 -0.921875 20.875 -2.640625 L 21.796875 0 L 31.515625 0 L 31.515625 -21.53125 C 31.515625 -30.59375 26.09375 -34.8125 17.703125 -34.8125 C 15.71875 -34.8125 12.8125 -34.484375 8.921875 -33.09375 C 7.0625 -32.5 5.75 -31.78125 4.6875 -31.1875 Z M 20.15625 -8.984375 C 19.09375 -8.1875 17.640625 -7.53125 16.046875 -7.53125 C 13.8125 -7.53125 12.484375 -8.859375 12.484375 -10.5625 C 12.484375 -12.75 13.40625 -14.203125 16.125 -14.734375 C 16.3125 -14.796875 16.78125 -14.859375 17.375 -14.9375 C 17.96875 -15 18.953125 -15.0625 20.15625 -15.265625 Z M 20.15625 -8.984375 "/></g></g></g><g fill="#ffffff" fill-opacity="1"><g transform="translate(118.412585, 113.308365)"><g><path d="M 13.9375 -34.09375 L 3.703125 -34.09375 L 3.703125 0 L 15.265625 0 L 15.265625 -21.34375 C 16.640625 -22.921875 19.09375 -24.90625 21.859375 -24.90625 C 22.984375 -24.90625 24.25 -24.703125 25.5625 -24.375 L 26.953125 -33.828125 C 25.890625 -34.359375 24.25 -34.546875 22.65625 -34.546875 C 18.765625 -34.546875 16.1875 -32.5 14.59375 -30.59375 Z M 13.9375 -34.09375 "/></g></g></g><g fill="#ffffff" fill-opacity="1"><g transform="translate(145.366336, 113.308365)"><g><path d="M 13.875 -34.09375 L 3.703125 -34.09375 L 3.703125 0 L 15.265625 0 L 15.265625 -23.65625 C 16.3125 -24.703125 17.90625 -25.828125 19.8125 -25.828125 C 22.65625 -25.828125 23.578125 -23.65625 23.578125 -20.609375 L 23.578125 0 L 35.078125 0 L 35.078125 -21.9375 C 35.078125 -22.859375 35.015625 -23.453125 34.953125 -23.984375 C 35.734375 -24.4375 36.140625 -24.703125 36.203125 -24.765625 C 37.125 -25.375 38.3125 -25.828125 39.4375 -25.828125 C 42.609375 -25.828125 43.53125 -23.921875 43.53125 -20.609375 L 43.53125 0 L 55.09375 0 L 55.09375 -21.671875 C 55.09375 -30.0625 51.390625 -34.8125 42.75 -34.8125 C 38.578125 -34.8125 35.21875 -33.421875 32.234375 -31.1875 C 30.125 -33.625 26.953125 -34.8125 23.0625 -34.8125 C 19.359375 -34.8125 16.1875 -33.09375 14.328125 -31.25 Z M 13.875 -34.09375 "/></g></g></g><g fill="#ffffff" fill-opacity="1"><g transform="translate(204.030406, 113.308365)"><g><path d="M 8.0625 -23.84375 C 10.5 -25.296875 13.21875 -26.234375 15.921875 -26.234375 C 18.765625 -26.234375 20.15625 -24.96875 20.15625 -22.46875 L 20.15625 -21.265625 C 16.515625 -21.078125 14.203125 -20.75 12.875 -20.546875 C 10.640625 -20.34375 7.796875 -19.546875 5.609375 -17.703125 C 3.296875 -15.921875 1.65625 -13.28125 1.71875 -9.71875 C 1.71875 -6.40625 2.84375 -4.03125 4.6875 -2.25 C 6.609375 -0.390625 9.109375 0.53125 12.09375 0.53125 C 16.046875 0.53125 19.03125 -0.921875 20.875 -2.640625 L 21.796875 0 L 31.515625 0 L 31.515625 -21.53125 C 31.515625 -30.59375 26.09375 -34.8125 17.703125 -34.8125 C 15.71875 -34.8125 12.8125 -34.484375 8.921875 -33.09375 C 7.0625 -32.5 5.75 -31.78125 4.6875 -31.1875 Z M 20.15625 -8.984375 C 19.09375 -8.1875 17.640625 -7.53125 16.046875 -7.53125 C 13.8125 -7.53125 12.484375 -8.859375 12.484375 -10.5625 C 12.484375 -12.75 13.40625 -14.203125 16.125 -14.734375 C 16.3125 -14.796875 16.78125 -14.859375 17.375 -14.9375 C 17.96875 -15 18.953125 -15.0625 20.15625 -15.265625 Z M 20.15625 -8.984375 "/></g></g></g><g fill="#ffffff" fill-opacity="1"><g transform="translate(239.043863, 113.308365)"><g><path d="M 28.34375 -11.953125 C 26.15625 -9.96875 24.109375 -8.515625 20.546875 -8.515625 C 16.125 -8.515625 13.609375 -11.296875 13.609375 -17.375 C 13.609375 -22.984375 15.78125 -25.765625 19.296875 -25.765625 C 21.796875 -25.765625 23.453125 -23.921875 24.90625 -20.8125 L 32.90625 -25.96875 L 31.578125 -28.28125 C 30.328125 -30.25 28.203125 -32.296875 24.90625 -33.765625 C 21.609375 -35.21875 16.984375 -35.40625 11.359375 -33.234375 C 6.015625 -31.109375 2.25 -25.171875 2.25 -16.90625 C 2.25 -5.484375 8.65625 0.65625 19.15625 0.65625 C 25.375 0.65625 29.796875 -1.515625 31.96875 -3.375 Z M 28.34375 -11.953125 "/></g></g></g><g fill="#ffffff" fill-opacity="1"><g transform="translate(273.330641, 113.308365)"><g><path d="M 9.71875 -47.625 C 5.8125 -47.625 3.703125 -45.1875 3.703125 -42.140625 C 3.703125 -38.90625 5.8125 -36.859375 9.71875 -36.859375 C 13.546875 -36.859375 15.71875 -38.90625 15.71875 -42.140625 C 15.71875 -45.1875 13.546875 -47.625 9.71875 -47.625 Z M 15.390625 0 L 15.390625 -34.09375 L 3.890625 -34.09375 L 3.890625 0 Z M 15.390625 0 "/></g></g></g><g fill="#ffffff" fill-opacity="1"><g transform="translate(292.621088, 113.308365)"><g><path d="M 1.515625 -3.375 C 2.4375 -2.640625 4.296875 -1.578125 6.875 -0.796875 C 9.3125 0.0625 12.625 0.65625 16.1875 0.65625 C 18.5 0.65625 20.671875 0.390625 22.859375 -0.125 C 27.21875 -1.25 31.1875 -4.5625 31.1875 -10.4375 C 31.1875 -11.625 31.046875 -13.015625 30.453125 -14.40625 C 29.859375 -15.71875 28.875 -17.109375 27.015625 -18.296875 C 25.03125 -19.625 22.46875 -20.609375 19.09375 -21.53125 C 17.171875 -21.9375 15.71875 -22.46875 14.671875 -22.921875 C 13.609375 -23.390625 13.078125 -24.109375 13.078125 -24.96875 C 13.078125 -26.75 15.0625 -27.015625 17.25 -27.015625 C 18.625 -27.015625 20.28125 -26.5625 22 -25.96875 C 23.71875 -25.375 25.5 -24.4375 26.890625 -23.515625 L 30.328125 -30.84375 C 27.28125 -32.90625 23.390625 -34.8125 16.78125 -34.8125 C 13.609375 -34.875 9.84375 -34.15625 7 -32.375 C 4.15625 -30.65625 1.984375 -27.8125 2.25 -23.984375 C 2.25 -20.671875 3.171875 -18.4375 5.28125 -16.78125 C 7.328125 -15 10.4375 -13.8125 14.859375 -12.6875 C 18.4375 -11.765625 20.15625 -10.703125 20.15625 -9.578125 C 20.15625 -7.796875 18.359375 -7.40625 16.1875 -7.40625 C 14.203125 -7.40625 12.09375 -7.734375 10.109375 -8.515625 C 8 -9.25 6.34375 -10.234375 5.09375 -11.296875 Z M 1.515625 -3.375 "/></g></g></g><g fill="#ffffff" fill-opacity="1"><g transform="translate(325.718712, 113.308365)"><g><path d="M 16.640625 -34.09375 L 16.640625 -42.34375 L 5.15625 -42.34375 L 5.15625 -34.09375 L 0.53125 -34.09375 L 0.53125 -25.5625 L 5.15625 -25.5625 L 5.15625 -9.453125 C 5.15625 -3.03125 8.515625 0.65625 15.1875 0.65625 C 20.15625 0.65625 23.3125 -0.390625 26.03125 -2.3125 L 23.390625 -9.84375 C 21.9375 -8.71875 20.546875 -8.1875 19.296875 -8.1875 C 17.4375 -8.1875 16.640625 -8.921875 16.640625 -11.09375 L 16.640625 -25.5625 L 24.109375 -25.5625 L 24.109375 -34.09375 Z M 16.640625 -34.09375 "/></g></g></g><g fill="#ffffff" fill-opacity="1"><g transform="translate(351.879711, 113.308365)"><g/></g></g><g fill="#ffffff" fill-opacity="1"><g transform="translate(366.809991, 113.308365)"><g><path d="M 27.484375 -23.984375 L 41.15625 -46.25 L 27.9375 -46.25 L 21.015625 -33.953125 L 14 -46.25 L 0.59375 -46.25 L 14.328125 -23.84375 L -0.390625 0 L 12.953125 0 L 20.8125 -13.734375 L 28.609375 0 L 42.140625 0 Z M 27.484375 -23.984375 "/></g></g></g></svg>