<svg xmlns="http://www.w3.org/2000/svg" xmlns:xlink="http://www.w3.org/1999/xlink" width="75" zoomAndPan="magnify" viewBox="0 0 56.25 30.000001" height="40" preserveAspectRatio="xMidYMid meet" version="1.0"><defs><g/></defs><g fill="#ffffff" fill-opacity="1"><g transform="translate(3.057443, 10.132626)"><g><path d="M 8.574219 0 L 8.160156 -7.429688 L 6.082031 -7.429688 L 4.605469 -2.484375 L 3.015625 -7.429688 L 0.902344 -7.429688 L 0.550781 0 L 2.367188 0 L 2.527344 -4.117188 L 3.914062 0.0429688 L 5.304688 0.0429688 L 6.535156 -4.136719 L 6.800781 0 Z M 8.574219 0 "/></g></g></g><g fill="#ffffff" fill-opacity="1"><g transform="translate(12.182852, 10.132626)"><g><path d="M 4.734375 -1.921875 C 4.339844 -1.582031 3.96875 -1.328125 3.34375 -1.328125 C 2.589844 -1.328125 2.207031 -1.6875 2.164062 -2.355469 L 5.519531 -2.355469 C 5.507812 -4.542969 4.542969 -5.59375 2.992188 -5.59375 C 2.601562 -5.59375 2.207031 -5.519531 1.816406 -5.347656 C 0.964844 -5.03125 0.359375 -4.03125 0.359375 -2.738281 C 0.359375 -1.773438 0.648438 -1.070312 1.136719 -0.59375 C 1.625 -0.105469 2.292969 0.105469 3.078125 0.105469 C 3.386719 0.148438 3.808594 0.0742188 4.234375 -0.0546875 C 4.660156 -0.179688 5.0625 -0.359375 5.285156 -0.617188 Z M 2.175781 -3.394531 C 2.226562 -3.980469 2.546875 -4.351562 3.003906 -4.351562 C 3.4375 -4.351562 3.746094 -3.957031 3.777344 -3.394531 Z M 2.175781 -3.394531 "/></g></g></g><g fill="#ffffff" fill-opacity="1"><g transform="translate(17.997651, 10.132626)"><g><path d="M 5.59375 0 L 5.59375 -7.429688 L 3.734375 -7.429688 L 3.734375 -5.421875 C 3.480469 -5.550781 3.109375 -5.59375 2.769531 -5.59375 C 2.386719 -5.59375 2.015625 -5.507812 1.644531 -5.316406 C 0.902344 -4.945312 0.359375 -3.9375 0.359375 -2.75 C 0.359375 -1.929688 0.574219 -1.21875 0.976562 -0.710938 C 1.367188 -0.203125 1.921875 0.105469 2.621094 0.105469 C 3.320312 0.105469 3.671875 -0.160156 3.894531 -0.425781 L 3.980469 0 Z M 3.734375 -1.601562 C 3.617188 -1.433594 3.375 -1.304688 3.089844 -1.304688 C 2.527344 -1.304688 2.175781 -1.867188 2.175781 -2.757812 C 2.144531 -2.949219 2.207031 -3.300781 2.355469 -3.617188 C 2.515625 -3.914062 2.769531 -4.160156 3.183594 -4.160156 C 3.34375 -4.160156 3.535156 -4.117188 3.734375 -4.023438 Z M 3.734375 -1.601562 "/></g></g></g><g fill="#ffffff" fill-opacity="1"><g transform="translate(24.162611, 10.132626)"><g><path d="M 1.558594 -7.652344 C 0.933594 -7.652344 0.59375 -7.257812 0.59375 -6.769531 C 0.59375 -6.25 0.933594 -5.921875 1.558594 -5.921875 C 2.175781 -5.921875 2.527344 -6.25 2.527344 -6.769531 C 2.527344 -7.257812 2.175781 -7.652344 1.558594 -7.652344 Z M 2.472656 0 L 2.472656 -5.476562 L 0.625 -5.476562 L 0.625 0 Z M 2.472656 0 "/></g></g></g><g fill="#ffffff" fill-opacity="1"><g transform="translate(27.261008, 10.132626)"><g><path d="M 4.550781 -1.921875 C 4.203125 -1.601562 3.875 -1.367188 3.300781 -1.367188 C 2.589844 -1.367188 2.1875 -1.816406 2.1875 -2.789062 C 2.1875 -3.691406 2.535156 -4.136719 3.097656 -4.136719 C 3.5 -4.136719 3.765625 -3.839844 4 -3.34375 L 5.285156 -4.171875 L 5.074219 -4.542969 C 4.871094 -4.859375 4.53125 -5.1875 4 -5.421875 C 3.46875 -5.65625 2.726562 -5.6875 1.824219 -5.335938 C 0.964844 -5 0.359375 -4.042969 0.359375 -2.714844 C 0.359375 -0.878906 1.390625 0.105469 3.078125 0.105469 C 4.074219 0.105469 4.785156 -0.242188 5.136719 -0.542969 Z M 4.550781 -1.921875 "/></g></g></g><g fill="#ffffff" fill-opacity="1"><g transform="translate(32.768089, 10.132626)"><g><path d="M 1.292969 -3.832031 C 1.6875 -4.0625 2.121094 -4.214844 2.558594 -4.214844 C 3.015625 -4.214844 3.238281 -4.011719 3.238281 -3.609375 L 3.238281 -3.417969 C 2.652344 -3.386719 2.28125 -3.332031 2.070312 -3.300781 C 1.707031 -3.269531 1.253906 -3.140625 0.902344 -2.84375 C 0.53125 -2.558594 0.265625 -2.132812 0.277344 -1.558594 C 0.277344 -1.03125 0.457031 -0.648438 0.753906 -0.359375 C 1.0625 -0.0625 1.464844 0.0859375 1.941406 0.0859375 C 2.578125 0.0859375 3.054688 -0.148438 3.351562 -0.425781 L 3.5 0 L 5.0625 0 L 5.0625 -3.460938 C 5.0625 -4.914062 4.191406 -5.59375 2.84375 -5.59375 C 2.527344 -5.59375 2.058594 -5.539062 1.433594 -5.316406 C 1.136719 -5.222656 0.921875 -5.105469 0.753906 -5.007812 Z M 3.238281 -1.441406 C 3.066406 -1.316406 2.832031 -1.210938 2.578125 -1.210938 C 2.21875 -1.210938 2.003906 -1.421875 2.003906 -1.699219 C 2.003906 -2.046875 2.152344 -2.28125 2.589844 -2.367188 C 2.621094 -2.378906 2.695312 -2.386719 2.789062 -2.398438 C 2.886719 -2.410156 3.046875 -2.417969 3.238281 -2.453125 Z M 3.238281 -1.441406 "/></g></g></g><g fill="#ffffff" fill-opacity="1"><g transform="translate(38.391888, 10.132626)"><g><path d="M 2.410156 -7.417969 L 0.550781 -7.417969 L 0.550781 -1.476562 C 0.550781 -0.371094 1.082031 0.105469 2.101562 0.105469 C 2.640625 0.105469 3.183594 -0.0195312 3.394531 -0.105469 L 3.164062 -1.433594 C 2.992188 -1.378906 2.863281 -1.347656 2.769531 -1.347656 C 2.492188 -1.347656 2.410156 -1.476562 2.410156 -1.78125 Z M 2.410156 -7.417969 "/></g></g></g><g fill="#ffffff" fill-opacity="1"><g transform="translate(41.894335, 10.132626)"><g/></g></g><g fill="#ffffff" fill-opacity="1"><g transform="translate(11.071339, 24.643516)"><g><path d="M 14.292969 -1.117188 C 13.964844 -1.578125 13.214844 -2.421875 12.195312 -3.289062 C 12.65625 -4.308594 12.867188 -5.445312 12.867188 -6.730469 C 12.867188 -7.734375 12.695312 -8.753906 12.347656 -9.773438 C 12.042969 -10.886719 11.386719 -11.792969 10.40625 -12.542969 C 9.40625 -13.332031 8.214844 -13.714844 6.769531 -13.714844 C 5.808594 -13.714844 4.847656 -13.464844 3.847656 -13.003906 C 1.941406 -12.0625 0.710938 -9.65625 0.710938 -6.730469 C 0.710938 -4.808594 1.210938 -3.058594 2.230469 -1.789062 C 3.269531 -0.5 4.769531 0.289062 6.769531 0.289062 C 8.386719 0.289062 9.617188 -0.230469 10.578125 -1.039062 C 11.386719 -0.347656 12.15625 0.402344 12.425781 0.789062 Z M 5.964844 -4.019531 C 6.90625 -3.539062 7.558594 -3.210938 7.867188 -3 C 7.597656 -2.847656 7.234375 -2.769531 6.769531 -2.769531 C 5.945312 -2.769531 5.308594 -3.191406 4.90625 -3.886719 C 4.480469 -4.597656 4.25 -5.597656 4.25 -6.730469 C 4.25 -7.136719 4.269531 -7.65625 4.386719 -8.234375 C 4.519531 -8.789062 4.710938 -9.367188 5.117188 -9.925781 C 5.519531 -10.445312 6.058594 -10.695312 6.769531 -10.675781 C 7 -10.695312 7.25 -10.65625 7.558594 -10.539062 C 8.175781 -10.273438 8.734375 -9.65625 9.117188 -8.636719 C 9.503906 -7.597656 9.40625 -6.25 9.195312 -5.175781 C 8.65625 -5.558594 7.964844 -5.945312 7.136719 -6.328125 Z M 5.964844 -4.019531 "/></g></g></g><g fill="#ffffff" fill-opacity="1"><g transform="translate(24.958, 24.643516)"><g><path d="M 10.425781 0 L 10.425781 -9.925781 L 7.039062 -9.925781 L 7.039062 -3.019531 C 6.714844 -2.769531 6.25 -2.441406 5.578125 -2.441406 C 4.75 -2.441406 4.425781 -3.019531 4.425781 -4.058594 L 4.425781 -9.925781 L 1.019531 -9.925781 L 1.019531 -3.636719 C 1.019531 -1.117188 2.367188 0.230469 4.558594 0.230469 C 5.695312 0.230469 6.65625 -0.191406 7.289062 -0.828125 L 7.484375 0 Z M 10.425781 0 "/></g></g></g><g fill="#ffffff" fill-opacity="1"><g transform="translate(36.440464, 24.643516)"><g><path d="M 2.828125 -13.867188 C 1.691406 -13.867188 1.078125 -13.15625 1.078125 -12.273438 C 1.078125 -11.328125 1.691406 -10.734375 2.828125 -10.734375 C 3.941406 -10.734375 4.578125 -11.328125 4.578125 -12.273438 C 4.578125 -13.15625 3.941406 -13.867188 2.828125 -13.867188 Z M 4.480469 0 L 4.480469 -9.925781 L 1.136719 -9.925781 L 1.136719 0 Z M 4.480469 0 "/></g></g></g><g fill="#ffffff" fill-opacity="1"><g transform="translate(42.05668, 24.643516)"><g><path d="M 9.484375 -7.636719 L 9.484375 -9.925781 L 0.867188 -9.925781 L 0.867188 -7.425781 L 5.367188 -7.425781 L 0.652344 -2.117188 L 0.652344 0 L 9.636719 0 L 9.636719 -2.480469 L 4.90625 -2.480469 Z M 9.484375 -7.636719 "/></g></g></g></svg>